HIERARCHY
ROOT RootJoint
{
    OFFSET   0.000000   0.000000   0.000000
    CHANNELS 6 Xposition Yposition Zposition Xrotation Yrotation Zrotation
    JOINT pelvis_lowerback
    {
        OFFSET   0.000000   0.093605   0.000000
        CHANNELS 3 Xrotation Yrotation Zrotation
        JOINT lowerback_torso
        {
            OFFSET   0.000000   0.100000   0.000000
            CHANNELS 3 Xrotation Yrotation Zrotation
            JOINT torso_head
            {
                OFFSET   0.000000   0.282350   0.000000
                CHANNELS 3 Xrotation Yrotation Zrotation
                End Site
                {
                    OFFSET   0.000000   0.192650   0.000000
                }
            }
            JOINT rTorso_Clavicle
            {
                OFFSET  -0.001000   0.157500   0.000000
                CHANNELS 3 Xrotation Yrotation Zrotation
                JOINT rShoulder
                {
                    OFFSET  -0.117647   0.000000   0.000000
                    CHANNELS 3 Xrotation Yrotation Zrotation
                    JOINT rElbow
                    {
                        OFFSET  -0.245000   0.000000   0.000000
                        CHANNELS 3 Xrotation Yrotation Zrotation
                        JOINT rWrist
                        {
                            OFFSET  -0.240000   0.000000   0.000000
                            CHANNELS 3 Xrotation Yrotation Zrotation
                            End Site
                            {
                                OFFSET  -0.116353  -0.002500   0.000000
                            }
                        }
                    }
                }
            }
            JOINT lTorso_Clavicle
            {
                OFFSET   0.001000   0.157500   0.000000
                CHANNELS 3 Xrotation Yrotation Zrotation
                JOINT lShoulder
                {
                    OFFSET   0.117647   0.000000   0.000000
                    CHANNELS 3 Xrotation Yrotation Zrotation
                    JOINT lElbow
                    {
                        OFFSET   0.245000   0.000000   0.000000
                        CHANNELS 3 Xrotation Yrotation Zrotation
                        JOINT lWrist
                        {
                            OFFSET   0.240000   0.000000   0.000000
                            CHANNELS 3 Xrotation Yrotation Zrotation
                            End Site
                            {
                                OFFSET   0.116353  -0.002500   0.000000
                            }
                        }
                    }
                }
            }
        }
    }
    JOINT rHip
    {
        OFFSET  -0.100000  -0.051395   0.000000
        CHANNELS 3 Xrotation Yrotation Zrotation
        JOINT rKnee
        {
            OFFSET   0.000000  -0.410000   0.000000
            CHANNELS 3 Xrotation Yrotation Zrotation
            JOINT rAnkle
            {
                OFFSET   0.000000  -0.390000   0.000000
                CHANNELS 3 Xrotation Yrotation Zrotation
                JOINT rToeJoint
                {
                    OFFSET   0.000000  -0.050000   0.130000
                    CHANNELS 3 Xrotation Yrotation Zrotation
                    End Site
                    {
                        OFFSET  -0.010000   0.002000   0.060000
                    }
                }
            }
        }
    }
    JOINT lHip
    {
        OFFSET   0.100000  -0.051395   0.000000
        CHANNELS 3 Xrotation Yrotation Zrotation
        JOINT lKnee
        {
            OFFSET   0.000000  -0.410000   0.000000
            CHANNELS 3 Xrotation Yrotation Zrotation
            JOINT lAnkle
            {
                OFFSET   0.000000  -0.390000   0.000000
                CHANNELS 3 Xrotation Yrotation Zrotation
                JOINT lToeJoint
                {
                    OFFSET   0.000000  -0.050000   0.130000
                    CHANNELS 3 Xrotation Yrotation Zrotation
                    End Site
                    {
                        OFFSET   0.010000   0.002000   0.060000
                    }
                }
            }
        }
    }
}
MOTION
Frames: 14
Frame Time:   0.008333
 -2.916704   0.940798   4.116259  31.292948 -17.717685  13.348087  16.240197   5.552383  -6.123963  -8.240903  -0.340820  -8.239963   1.932161  -3.444279  -2.268928  -4.551896  13.419259 -22.512391 -18.007773  20.079374  13.084281   0.011545  15.716255   0.010664   2.493915   1.385628  -0.143119  -6.296463  -9.260540  13.891143 -10.930790 -11.803319  -8.529060   0.026711  -9.228699  -0.006131   1.731133  -3.345744   4.741236 -30.679868 -18.230398  -5.023418  28.587972  -0.000348   0.000122   2.185205 -23.149617  11.503913  -2.629005   0.000553  -0.003430 -36.646748  -3.682308   0.408134   9.678518   0.000019  -0.000003  15.565959   6.095393   3.040874 -28.252604   0.000277   0.000009
 -2.919113   0.941006   4.115355  31.111165 -17.675965  13.238358  16.501061   5.606553  -6.035766  -8.329376  -0.224381  -8.274687   1.882502  -3.634119  -2.276719  -4.440940  14.311511 -22.167855 -18.200978  21.037961  13.687701   0.014113  16.293168   0.010133   2.494452   1.297929  -0.319996  -6.182017 -10.163994  13.402120 -11.028436 -12.754120  -9.334963   0.030953 -10.052633  -0.005164   1.632558  -2.988258   5.245308 -30.862267 -18.387952  -5.033284  28.554514  -0.000243   0.000108   2.010859 -23.565457  11.195024  -2.503435   0.000434  -0.003130 -36.699351  -3.637162   0.574873  10.052387  -0.000497   0.000563  15.722086   5.969907   2.960013 -28.714422   0.000554  -0.000119
 -2.921517   0.941337   4.114527  30.870195 -17.692520  13.121113  16.768943   5.663667  -5.950484  -8.374924  -0.114616  -8.303917   1.813877  -3.808729  -2.275114  -4.287559  15.238163 -21.808434 -18.403474  22.003348  14.327516   0.016468  16.863185   0.009533   2.497599   1.345662  -0.408426  -6.043132 -11.111784  12.866266 -11.139893 -13.719601 -10.181384   0.034802 -10.856983  -0.004342   1.548086  -2.784084   5.604303 -31.044465 -18.528819  -5.058651  28.495151  -0.000125   0.000120   1.849761 -23.952376  10.904907  -2.321700   0.000234  -0.003056 -36.727951  -3.564349   0.749481  10.522347  -0.001012   0.001113  15.917480   5.878194   2.878328 -29.312387   0.000939  -0.000312
 -2.923918   0.941834   4.113753  30.593851 -17.792846  13.039490  17.060401   5.714071  -5.907175  -8.376676  -0.011955  -8.351482   1.735321  -3.970274  -2.269842  -4.113278  16.168642 -21.451705 -18.612945  22.950334  14.975477   0.018324  17.414220   0.008672   2.499409   1.502345  -0.418575  -5.899388 -12.057968  12.323413 -11.262174 -14.661175 -11.022159   0.037695 -11.624618  -0.003528   1.474135  -2.692667   5.850847 -31.271321 -18.645465  -5.121801  28.399826   0.000036   0.000205   1.704438 -24.308654  10.634437  -2.058434  -0.000194  -0.003299 -36.737344  -3.538610   0.928584  11.052938  -0.001603   0.001042  16.218679   5.749002   2.814378 -25.975987  -0.002043  -0.004315
 -2.926355   0.942321   4.113074  30.296162 -17.947241  12.951625  17.345835   5.753509  -5.864784  -8.345430   0.078640  -8.401971   1.658109  -4.120871  -2.263609  -3.932684  17.076317 -21.111408 -18.825031  23.862058  15.613240   0.019482  17.940681   0.007711   2.501167   1.728701  -0.370146  -5.757468 -12.978895  11.790820 -11.391952 -15.564205 -11.842792   0.039422 -12.351430  -0.002803   1.408394  -2.670401   6.014432 -31.529718 -18.754694  -5.182280  28.293091   0.000199   0.000319   1.568968 -24.640578  10.380801  -1.774830  -0.000735  -0.003575 -36.674743  -3.494112   1.140493  11.598904  -0.002127   0.000910  16.439947   5.657595   2.759098 -27.574748   0.000179  -0.001812
 -2.928824   0.942756   4.112455  29.976813 -18.116751  12.862541  17.632442   5.767250  -5.827602  -8.292477   0.145066  -8.452856   1.584135  -4.261857  -2.256605  -3.757205  17.942413 -20.792796 -19.036421  24.725770  16.227585   0.019944  18.438229   0.006722   2.502671   1.986783  -0.292789  -5.622005 -13.868382  11.281416 -11.527814 -16.425024 -12.631266   0.040052 -13.037006  -0.002152   1.348823  -2.691379   6.127591 -31.840085 -18.847340  -5.259713  28.134508   0.000423   0.000486   1.459816 -24.941226  10.149232  -1.298592  -0.001877  -0.004249 -36.572581  -3.450501   1.353369  12.125591  -0.002522   0.000754  16.636647   5.572202   2.704257 -28.969909   0.001629   0.000093
 -2.931326   0.942873   4.112055  29.641642 -18.397227  12.750990  17.895675   5.803024  -5.788845  -8.224147   0.221839  -8.500451   1.518287  -4.392557  -2.249241  -3.586709  18.768838 -20.497117 -19.246400  25.544616  16.818484   0.019737  18.908549   0.005845   2.504078   2.268435  -0.189956  -5.495111 -14.703303  10.797389 -11.665109 -17.230640 -13.384255   0.039606 -13.679082  -0.001749   1.293601  -2.730219   6.200646 -32.140014 -18.943053  -5.300802  28.047857   0.000501   0.000581   1.319442 -25.236230   9.919672  -1.242204  -0.001674  -0.003602 -36.399242  -3.446093   1.647339  12.653990  -0.002970   0.000131  16.961203   5.478145   2.701459 -31.623363   0.005109   0.006827
 -2.933687   0.942949   4.111977  29.505308 -18.505135  12.737086  17.973434   5.781120  -5.777527  -8.295610   0.273385  -8.442012   1.419302  -4.610278  -2.335637  -3.461485  19.575990 -20.223402 -19.240720  26.423884  17.470299   0.022647  19.690590   0.005108   2.494406   2.130301  -0.275399  -5.372360 -15.469800  10.318576 -11.722449 -18.115190 -14.443901   0.042419 -14.479865  -0.000927   1.222373  -2.580030   6.463060 -32.400894 -19.360553  -5.434388  28.119098   0.000253   0.000168   1.725001 -25.537333   9.635782  -2.909769  -0.003324   0.008629 -36.488311  -3.188504   1.822443  13.290515  -0.003047   0.001349  16.549402   5.276477   2.608071 -30.922093   0.004237   0.005760
 -2.935942   0.943001   4.112058  29.472027 -18.581272  12.800450  18.001349   5.767018  -5.778419  -8.401513   0.318895  -8.396131   1.297718  -4.815681  -2.413407  -3.322646  20.382413 -19.963343 -19.256748  27.292064  18.116533   0.024725  20.446485   0.004589   2.486291   2.108576  -0.328384  -5.235402 -16.242275   9.818305 -11.796134 -18.982821 -15.505194   0.044335 -15.248134  -0.000027   1.162705  -2.535156   6.605741 -32.531755 -19.748474  -5.516649  28.166595   0.000105  -0.000048   2.106489 -25.766952   9.392000  -4.520402  -0.005702   0.016705 -36.648986  -2.926124   1.943574  13.857480  -0.002955   0.002106  16.172939   5.095790   2.521346 -30.038218   0.003571   0.005002
 -2.938079   0.943015   4.112187  29.510523 -18.645416  12.939577  18.024721   5.753309  -5.799941  -8.507817   0.361275  -8.372453   1.170582  -5.006620  -2.484266  -3.186515  21.173592 -19.731866 -19.291176  28.131736  18.732222   0.025983  21.163774   0.004018   2.478187   2.159943  -0.367593  -5.101124 -17.002989   9.331466 -11.884912 -19.818436 -16.528201   0.045168 -15.975510   0.001078   1.110735  -2.554351   6.678837 -32.593841 -20.084186  -5.508981  28.149926   0.000127   0.000015   2.435156 -25.903967   9.185310  -6.275063  -0.007016   0.021581 -36.853248  -2.680165   2.016077  14.362073  -0.002819   0.002371  15.833128   4.926205   2.439566 -29.040071   0.003071   0.004076
 -2.940009   0.942936   4.112380  29.602882 -18.733846  13.157102  18.059879   5.747335  -5.841630  -8.599165   0.409798  -8.373079   1.048153  -5.184044  -2.551688  -3.059434  21.942684 -19.532188 -19.341203  28.938411  19.310226   0.026571  21.841998   0.003453   2.471266   2.258949  -0.408941  -4.974883 -17.735508   8.868120 -11.985058 -20.612745 -17.502103   0.045024 -16.660363   0.002356   1.064292  -2.608397   6.718069 -32.645087 -20.396604  -5.487783  28.061648   0.000357   0.000309   2.727223 -26.053390   8.982884  -8.198756  -0.007831   0.026641 -37.073615  -2.448506   2.047159  14.815789  -0.002675   0.002192  15.517687   4.768801   2.362448 -28.084131   0.002690   0.002740
 -2.941698   0.942732   4.112654  29.738645 -18.865293  13.437631  18.111950   5.753016  -5.893207  -8.671979   0.468808  -8.388694   0.934015  -5.349027  -2.615606  -2.943002  22.685114 -19.360474 -19.403966  29.709433  19.850916   0.026647  22.481929   0.002979   2.465778   2.391705  -0.458710  -4.858482 -18.430469   8.431490 -12.093076 -21.360781 -18.423282   0.044084 -17.302609   0.003728   1.021635  -2.678456   6.742343 -32.715572 -20.688055  -5.490568  27.914980   0.000719   0.000805   2.986281 -26.219351   8.782943 -10.228058  -0.008496   0.032164 -37.295493  -2.232156   2.055493  15.230088  -0.002544   0.001705  15.216679   4.620517   2.288400 -27.295331   0.002370   0.001209
 -2.943163   0.942408   4.113013  29.909842 -19.037166  13.761809  18.181755   5.767382  -5.945050  -8.726592   0.535622  -8.408251   0.829015  -5.502679  -2.675142  -2.836383  23.395896 -19.209870 -19.476036  30.441892  20.357786   0.026351  23.084233   0.002628   2.461520   2.546588  -0.516596  -4.752625 -19.084730   8.023065 -12.206386 -22.061627 -19.290479   0.042549 -17.903488   0.005107   0.981761  -2.754000   6.762791 -32.809117 -20.956883  -5.512421  27.742849   0.001081   0.001360   3.213914 -26.381025   8.591163 -12.303902  -0.009167   0.037330 -37.513057  -2.032296   2.054148  15.611291  -0.002425   0.001067  14.925593   4.478368   2.216187 -26.713553   0.002068  -0.000115
 -2.944910   0.941670   4.114334  29.690711 -19.108878  13.877008  18.224049   5.721637  -5.963777  -8.502765   0.516358  -8.229809   0.838582  -5.646976  -2.747931  -2.795932  24.076425 -19.054697 -19.258960  31.230718  20.863142   0.031822  24.238261   0.001156   2.462274   2.262455  -0.582264  -4.545450 -19.585142   7.717537 -12.026901 -22.826198 -20.348006   0.046715 -18.762083   0.010213   0.973461  -2.723222   6.927953 -32.453472 -21.126820  -5.577839  27.627861   0.001007   0.001319   4.378682 -26.221640   8.766991 -18.559495  -0.027056   0.037863 -37.437906  -1.699276   1.998006  16.266590  -0.002066   0.002156  13.959745   4.248615   2.375069 -25.023813   0.000337  -0.000611
